<svg width="56" height="56" viewBox="0 0 56 56" fill="none" xmlns="http://www.w3.org/2000/svg">
<mask id="mask0_480_258" style="mask-type:alpha" maskUnits="userSpaceOnUse" x="8" y="8" width="40" height="40">
<rect x="8" y="8" width="40" height="40" fill="#D9D9D9"/>
</mask>
<g mask="url(#mask0_480_258)">
<path d="M14.6666 41.3334C13.7499 41.3334 12.9652 41.007 12.3124 40.3542C11.6596 39.7015 11.3333 38.9167 11.3333 38.0001V18.0001C11.3333 17.0834 11.6596 16.2987 12.3124 15.6459C12.9652 14.9931 13.7499 14.6667 14.6666 14.6667H41.3333C42.2499 14.6667 43.0346 14.9931 43.6874 15.6459C44.3402 16.2987 44.6666 17.0834 44.6666 18.0001V28.0001H14.6666V38.0001H31.3333V41.3334H14.6666ZM14.6666 21.3334H41.3333V18.0001H14.6666V21.3334ZM39.6666 44.6667V39.6667H34.6666V36.3334H39.6666V31.3334H42.9999V36.3334H47.9999V39.6667H42.9999V44.6667H39.6666Z" fill="#874FFF"/>
</g>
</svg>
