<svg width="56" height="56" viewBox="0 0 56 56" fill="none" xmlns="http://www.w3.org/2000/svg">
<mask id="mask0_480_265" style="mask-type:alpha" maskUnits="userSpaceOnUse" x="8" y="8" width="40" height="40">
<rect x="8" y="8" width="40" height="40" fill="#D9D9D9"/>
</mask>
<g mask="url(#mask0_480_265)">
<path d="M20.5001 26.3334C18.889 26.3334 17.514 25.764 16.3751 24.6251C15.2362 23.4862 14.6667 22.1112 14.6667 20.5001C14.6667 18.889 15.2362 17.514 16.3751 16.3751C17.514 15.2362 18.889 14.6667 20.5001 14.6667C22.1112 14.6667 23.4862 15.2362 24.6251 16.3751C25.764 17.514 26.3334 18.889 26.3334 20.5001C26.3334 22.1112 25.764 23.4862 24.6251 24.6251C23.4862 25.764 22.1112 26.3334 20.5001 26.3334ZM20.5001 23.0001C21.1945 23.0001 21.7848 22.757 22.2709 22.2709C22.757 21.7848 23.0001 21.1945 23.0001 20.5001C23.0001 19.8056 22.757 19.2154 22.2709 18.7292C21.7848 18.2431 21.1945 18.0001 20.5001 18.0001C19.8056 18.0001 19.2154 18.2431 18.7292 18.7292C18.2431 19.2154 18.0001 19.8056 18.0001 20.5001C18.0001 21.1945 18.2431 21.7848 18.7292 22.2709C19.2154 22.757 19.8056 23.0001 20.5001 23.0001ZM35.5001 41.3334C33.889 41.3334 32.514 40.764 31.3751 39.6251C30.2362 38.4862 29.6667 37.1112 29.6667 35.5001C29.6667 33.889 30.2362 32.514 31.3751 31.3751C32.514 30.2362 33.889 29.6667 35.5001 29.6667C37.1112 29.6667 38.4862 30.2362 39.6251 31.3751C40.764 32.514 41.3334 33.889 41.3334 35.5001C41.3334 37.1112 40.764 38.4862 39.6251 39.6251C38.4862 40.764 37.1112 41.3334 35.5001 41.3334ZM37.2709 37.2709C37.757 36.7848 38.0001 36.1945 38.0001 35.5001C38.0001 34.8056 37.757 34.2154 37.2709 33.7292C36.7848 33.2431 36.1945 33.0001 35.5001 33.0001C34.8056 33.0001 34.2154 33.2431 33.7292 33.7292C33.2431 34.2154 33.0001 34.8056 33.0001 35.5001C33.0001 36.1945 33.2431 36.7848 33.7292 37.2709C34.2154 37.757 34.8056 38.0001 35.5001 38.0001C36.1945 38.0001 36.7848 37.757 37.2709 37.2709ZM17.0001 41.3334L14.6667 39.0001L39.0001 14.6667L41.3334 17.0001L17.0001 41.3334Z" fill="#874FFF"/>
</g>
</svg>
