<svg width="56" height="56" viewBox="0 0 56 56" fill="none" xmlns="http://www.w3.org/2000/svg">
<mask id="mask0_480_243" style="mask-type:alpha" maskUnits="userSpaceOnUse" x="8" y="8" width="40" height="40">
<rect x="8" y="8" width="40" height="40" fill="#D9D9D9"/>
</mask>
<g mask="url(#mask0_480_243)">
<path d="M33.4999 35.8333L35.8333 33.4999L29.6666 27.3333V19.6666H26.3333V28.6666L33.4999 35.8333ZM27.9999 44.6666C25.6944 44.6666 23.5277 44.2291 21.4999 43.3541C19.4721 42.4791 17.7083 41.2916 16.2083 39.7916C14.7083 38.2916 13.5208 36.5277 12.6458 34.4999C11.7708 32.4721 11.3333 30.3055 11.3333 27.9999C11.3333 25.6944 11.7708 23.5277 12.6458 21.4999C13.5208 19.4721 14.7083 17.7083 16.2083 16.2083C17.7083 14.7083 19.4721 13.5208 21.4999 12.6458C23.5277 11.7708 25.6944 11.3333 27.9999 11.3333C30.3055 11.3333 32.4721 11.7708 34.4999 12.6458C36.5277 13.5208 38.2916 14.7083 39.7916 16.2083C41.2916 17.7083 42.4791 19.4721 43.3541 21.4999C44.2291 23.5277 44.6666 25.6944 44.6666 27.9999C44.6666 30.3055 44.2291 32.4721 43.3541 34.4999C42.4791 36.5277 41.2916 38.2916 39.7916 39.7916C38.2916 41.2916 36.5277 42.4791 34.4999 43.3541C32.4721 44.2291 30.3055 44.6666 27.9999 44.6666ZM27.9999 41.3333C31.6944 41.3333 34.8402 40.0346 37.4374 37.4374C40.0346 34.8402 41.3333 31.6944 41.3333 27.9999C41.3333 24.3055 40.0346 21.1596 37.4374 18.5624C34.8402 15.9652 31.6944 14.6666 27.9999 14.6666C24.3055 14.6666 21.1596 15.9652 18.5624 18.5624C15.9652 21.1596 14.6666 24.3055 14.6666 27.9999C14.6666 31.6944 15.9652 34.8402 18.5624 37.4374C21.1596 40.0346 24.3055 41.3333 27.9999 41.3333Z" fill="#874FFF"/>
</g>
</svg>
