<svg width="56" height="56" viewBox="0 0 56 56" fill="none" xmlns="http://www.w3.org/2000/svg">
<mask id="mask0_480_229" style="mask-type:alpha" maskUnits="userSpaceOnUse" x="8" y="8" width="40" height="40">
<rect x="8" y="8" width="40" height="40" fill="#D9D9D9"/>
</mask>
<g mask="url(#mask0_480_229)">
<path d="M16.3333 43C15.4167 43 14.6319 42.6736 13.9792 42.0208C13.3264 41.3681 13 40.5833 13 39.6667V16.3333C13 15.4167 13.3264 14.6319 13.9792 13.9792C14.6319 13.3264 15.4167 13 16.3333 13H31.3333V16.3333H16.3333V39.6667H39.6667V24.6667H43V39.6667C43 40.5833 42.6736 41.3681 42.0208 42.0208C41.3681 42.6736 40.5833 43 39.6667 43H16.3333ZM19.6667 36.3333H23V24.6667H19.6667V36.3333ZM26.3333 36.3333H29.6667V19.6667H26.3333V36.3333ZM33 36.3333H36.3333V29.6667H33V36.3333ZM36.3333 23V19.6667H33V16.3333H36.3333V13H39.6667V16.3333H43V19.6667H39.6667V23H36.3333Z" fill="#874FFF"/>
</g>
</svg>
