<svg width="56" height="56" viewBox="0 0 56 56" fill="none" xmlns="http://www.w3.org/2000/svg">
<mask id="mask0_480_236" style="mask-type:alpha" maskUnits="userSpaceOnUse" x="8" y="8" width="40" height="40">
<rect x="8" y="8" width="40" height="40" fill="#D9D9D9"/>
</mask>
<g mask="url(#mask0_480_236)">
<path d="M27.9999 44.6666C25.6944 44.6666 23.5277 44.2291 21.4999 43.3541C19.4721 42.4791 17.7083 41.2916 16.2083 39.7916C14.7083 38.2916 13.5208 36.5277 12.6458 34.4999C11.7708 32.4721 11.3333 30.3055 11.3333 27.9999C11.3333 25.6944 11.7708 23.5277 12.6458 21.4999C13.5208 19.4721 14.7083 17.7083 16.2083 16.2083C17.7083 14.7083 19.4721 13.5208 21.4999 12.6458C23.5277 11.7708 25.6944 11.3333 27.9999 11.3333C29.8055 11.3333 31.5138 11.5971 33.1249 12.1249C34.736 12.6527 36.2221 13.3888 37.5833 14.3333L35.1666 16.7916C34.111 16.1249 32.986 15.6041 31.7916 15.2291C30.5971 14.8541 29.3333 14.6666 27.9999 14.6666C24.3055 14.6666 21.1596 15.9652 18.5624 18.5624C15.9652 21.1596 14.6666 24.3055 14.6666 27.9999C14.6666 31.6944 15.9652 34.8402 18.5624 37.4374C21.1596 40.0346 24.3055 41.3333 27.9999 41.3333C28.8888 41.3333 29.7499 41.2499 30.5833 41.0833C31.4166 40.9166 32.2221 40.6805 32.9999 40.3749L35.4999 42.9166C34.361 43.4721 33.1666 43.9027 31.9166 44.2083C30.6666 44.5138 29.361 44.6666 27.9999 44.6666ZM39.6666 41.3333V36.3333H34.6666V32.9999H39.6666V27.9999H42.9999V32.9999H47.9999V36.3333H42.9999V41.3333H39.6666ZM25.6666 35.6666L18.5833 28.5833L20.9166 26.2499L25.6666 30.9999L42.3333 14.2916L44.6666 16.6249L25.6666 35.6666Z" fill="#874FFF"/>
</g>
</svg>
