<svg width="40" height="40" viewBox="0 0 40 40" fill="none" xmlns="http://www.w3.org/2000/svg">
<rect width="40" height="40" rx="8" fill="#CAFFDC"/>
<mask id="mask0_480_279" style="mask-type:alpha" maskUnits="userSpaceOnUse" x="8" y="8" width="24" height="24">
<rect x="8" y="8" width="24" height="24" fill="#0AC148"/>
</mask>
<g mask="url(#mask0_480_279)">
<path d="M11.4 26L10 24.6L15.3 19.3C15.8833 18.7167 16.5917 18.425 17.425 18.425C18.2583 18.425 18.9667 18.7167 19.55 19.3L20.7 20.45C20.9 20.65 21.1375 20.75 21.4125 20.75C21.6875 20.75 21.925 20.65 22.125 20.45L26.575 16H24V14H30V20H28V17.425L23.525 21.875C22.9417 22.4583 22.2333 22.75 21.4 22.75C20.5667 22.75 19.8583 22.4583 19.275 21.875L18.1 20.7C17.9167 20.5167 17.6833 20.425 17.4 20.425C17.1167 20.425 16.8833 20.5167 16.7 20.7L11.4 26Z" fill="#0AC148"/>
</g>
</svg>
