<svg width="40" height="40" viewBox="0 0 40 40" fill="none" xmlns="http://www.w3.org/2000/svg">
<rect width="40" height="40" rx="8" fill="#874FFF" fill-opacity="0.3"/>
<mask id="mask0_480_304" style="mask-type:alpha" maskUnits="userSpaceOnUse" x="8" y="8" width="24" height="24">
<rect x="8" y="8" width="24" height="24" fill="#D9D9D9"/>
</mask>
<g mask="url(#mask0_480_304)">
<path d="M13 16V27H27V16H24V24L20 22L16 24V16H13ZM13 29C12.45 29 11.9792 28.8042 11.5875 28.4125C11.1958 28.0208 11 27.55 11 27V14.525C11 14.2917 11.0375 14.0667 11.1125 13.85C11.1875 13.6333 11.3 13.4333 11.45 13.25L12.7 11.725C12.8833 11.4917 13.1125 11.3125 13.3875 11.1875C13.6625 11.0625 13.95 11 14.25 11H25.75C26.05 11 26.3375 11.0625 26.6125 11.1875C26.8875 11.3125 27.1167 11.4917 27.3 11.725L28.55 13.25C28.7 13.4333 28.8125 13.6333 28.8875 13.85C28.9625 14.0667 29 14.2917 29 14.525V27C29 27.55 28.8042 28.0208 28.4125 28.4125C28.0208 28.8042 27.55 29 27 29H13ZM13.4 14H26.6L25.75 13H14.25L13.4 14ZM18 16V20.75L20 19.75L22 20.75V16H18Z" fill="#874FFF"/>
</g>
</svg>
