<svg width="97" height="21" viewBox="0 0 97 21" fill="none" xmlns="http://www.w3.org/2000/svg">
<mask id="mask0_480_8" style="mask-type:luminance" maskUnits="userSpaceOnUse" x="0" y="0" width="22" height="21">
<path d="M21.0018 0H0V21H21.0018V0Z" fill="white"/>
</mask>
<g mask="url(#mask0_480_8)">
<path d="M21.0018 16.1538C21.0018 19.3846 19.3863 21 16.1553 21H4.84658C1.61553 21 0 19.3846 0 16.1538V4.84616C0 1.61538 1.61553 0 4.84658 0H16.1553C19.3863 0 21.0018 1.61538 21.0018 4.84616V16.1538Z" fill="#8A38F5"/>
<path d="M8.00934 3.20339H6.22952C5.24657 3.20339 4.44971 4.00018 4.44971 4.98305V16.0169C4.44971 16.9998 5.24657 17.7966 6.22952 17.7966H8.00934C8.9923 17.7966 9.78916 16.9998 9.78916 16.0169V4.98305C9.78916 4.00018 8.9923 3.20339 8.00934 3.20339Z" fill="white"/>
<path d="M14.7725 3.20339H12.9927C12.0098 3.20339 11.2129 4.00018 11.2129 4.98305V7.83051C11.2129 8.81338 12.0098 9.61017 12.9927 9.61017H14.7725C15.7555 9.61017 16.5523 8.81338 16.5523 7.83051V4.98305C16.5523 4.00018 15.7555 3.20339 14.7725 3.20339Z" fill="white"/>
<path d="M14.7725 11.3898H12.9927C12.0098 11.3898 11.2129 12.1866 11.2129 13.1695V16.017C11.2129 16.9998 12.0098 17.7966 12.9927 17.7966H14.7725C15.7555 17.7966 16.5523 16.9998 16.5523 16.017V13.1695C16.5523 12.1866 15.7555 11.3898 14.7725 11.3898Z" fill="white"/>
</g>
<path d="M89.4758 15.834C89.7851 15.834 90.1217 15.8067 90.4855 15.7521C90.8674 15.6794 91.1493 15.5884 91.3312 15.4793V13.2966L89.3667 13.4603C88.8573 13.4967 88.439 13.6058 88.1115 13.7877C87.7841 13.9696 87.6203 14.2424 87.6203 14.6062C87.6203 14.97 87.7568 15.2701 88.0297 15.5066C88.3207 15.7248 88.8028 15.834 89.4758 15.834ZM89.2576 5.11145C90.2399 5.11145 91.1312 5.21151 91.9316 5.41158C92.7501 5.61166 93.4414 5.92088 94.0054 6.33922C94.5874 6.7394 95.0331 7.25778 95.3424 7.8944C95.6516 8.51283 95.8062 9.2495 95.8062 10.1044V16.216C95.8062 16.6889 95.6697 17.0799 95.3969 17.3892C95.1422 17.6802 94.833 17.9349 94.4692 18.1531C93.2867 18.8624 91.6224 19.2171 89.4758 19.2171C88.5117 19.2171 87.6387 19.1262 86.8564 18.9443C86.0923 18.7624 85.4285 18.4896 84.8645 18.1258C84.3188 17.762 83.8912 17.2982 83.5821 16.7343C83.2909 16.1705 83.1455 15.5157 83.1455 14.7699C83.1455 13.5149 83.5184 12.5508 84.2641 11.8778C85.01 11.2048 86.1651 10.7865 87.7296 10.6228L91.304 10.2408V10.0498C91.304 9.52234 91.0675 9.14945 90.5946 8.93119C90.1398 8.69473 89.4758 8.57651 88.6026 8.57651C87.9115 8.57651 87.2384 8.64926 86.5836 8.79477C85.9286 8.94029 85.3375 9.12217 84.81 9.34045C84.5735 9.17673 84.3734 8.93119 84.2097 8.60379C84.0459 8.2582 83.964 7.90349 83.964 7.53971C83.964 7.0668 84.0731 6.69393 84.2915 6.42109C84.5279 6.13006 84.8826 5.8845 85.3557 5.68442C85.8832 5.48435 86.5017 5.33882 87.2111 5.24788C87.9387 5.15694 88.6209 5.11145 89.2576 5.11145Z" fill="#505050"/>
<path d="M77.5138 14.2242C77.5138 14.6972 77.6592 15.0337 77.9504 15.2337C78.2595 15.4338 78.687 15.5339 79.2327 15.5339C79.5056 15.5339 79.7875 15.5157 80.0787 15.4793C80.3697 15.4247 80.6244 15.3611 80.8426 15.2883C81.0063 15.4884 81.1428 15.7157 81.2519 15.9704C81.3792 16.2069 81.4429 16.4979 81.4429 16.8435C81.4429 17.5347 81.1791 18.0984 80.6516 18.535C80.1422 18.9715 79.2327 19.1899 77.923 19.1899C76.3222 19.1899 75.0852 18.8261 74.212 18.0984C73.3572 17.371 72.9297 16.1887 72.9297 14.5516V2.87419C73.1297 2.81962 73.4117 2.76506 73.7755 2.7105C74.1576 2.63773 74.5577 2.60135 74.9761 2.60135C75.7765 2.60135 76.395 2.74687 76.8316 3.0379C77.2863 3.31074 77.5138 3.90187 77.5138 4.81133V6.5575H81.0882C81.1973 6.75759 81.2973 7.01222 81.3883 7.32144C81.4975 7.61246 81.552 7.93987 81.552 8.30367C81.552 8.94029 81.4066 9.4041 81.1154 9.69513C80.8426 9.96797 80.4697 10.1044 79.9968 10.1044H77.5138V14.2242Z" fill="#505050"/>
<path d="M65.3714 10.3772C65.3714 9.81337 65.2077 9.4041 64.8802 9.14945C64.571 8.87663 64.1435 8.7402 63.5978 8.7402C63.234 8.7402 62.8702 8.78567 62.5063 8.87663C62.1608 8.96757 61.8605 9.10398 61.6058 9.28588V18.7534C61.4239 18.808 61.1329 18.8624 60.7327 18.9171C60.3507 18.9715 59.9506 18.999 59.5322 18.999C59.1319 18.999 58.7681 18.9715 58.4406 18.9171C58.1315 18.8624 57.8677 18.7534 57.6493 18.5896C57.4311 18.4259 57.2583 18.2077 57.131 17.9349C57.0217 17.6438 56.9673 17.2709 56.9673 16.8162V8.63107C56.9673 8.13996 57.0673 7.7398 57.2674 7.43058C57.4857 7.12137 57.7767 6.83943 58.1405 6.58478C58.759 6.14825 59.5322 5.79356 60.4598 5.52072C61.4058 5.24788 62.4518 5.11145 63.5978 5.11145C65.6533 5.11145 67.2359 5.56619 68.3457 6.47565C69.4552 7.36693 70.01 8.61288 70.01 10.2135V18.7534C69.8281 18.808 69.5371 18.8624 69.1368 18.9171C68.7548 18.9715 68.3547 18.999 67.9363 18.999C67.536 18.999 67.1722 18.9715 66.8449 18.9171C66.5356 18.8624 66.2718 18.7534 66.0536 18.5896C65.8352 18.4259 65.6624 18.2077 65.5351 17.9349C65.4259 17.6438 65.3714 17.2709 65.3714 16.8162V10.3772Z" fill="#505050"/>
<path d="M54.7042 12.1507C54.7042 13.2784 54.5314 14.2879 54.1858 15.1792C53.8401 16.0522 53.3489 16.7889 52.7123 17.3892C52.0938 17.9893 51.348 18.4441 50.4749 18.7534C49.6017 19.0625 48.6285 19.2171 47.5552 19.2171C46.482 19.2171 45.5088 19.0534 44.6356 18.7261C43.7625 18.3987 43.0075 17.9349 42.3708 17.3346C41.7523 16.7162 41.2703 15.9704 40.9247 15.0973C40.5791 14.2242 40.4062 13.242 40.4062 12.1507C40.4062 11.0775 40.5791 10.1044 40.9247 9.23132C41.2703 8.35823 41.7523 7.62158 42.3708 7.02133C43.0075 6.4029 43.7625 5.92997 44.6356 5.60257C45.5088 5.27516 46.482 5.11145 47.5552 5.11145C48.6285 5.11145 49.6017 5.28426 50.4749 5.62985C51.348 5.95726 52.0938 6.43018 52.7123 7.04861C53.3489 7.64886 53.8401 8.38551 54.1858 9.2586C54.5314 10.1317 54.7042 11.0957 54.7042 12.1507ZM45.1541 12.1507C45.1541 13.2602 45.3632 14.1151 45.7817 14.7153C46.2182 15.2974 46.8184 15.5884 47.5825 15.5884C48.3465 15.5884 48.9285 15.2883 49.3288 14.6881C49.7473 14.0878 49.9564 13.242 49.9564 12.1507C49.9564 11.0593 49.7473 10.2226 49.3288 9.64057C48.9104 9.04032 48.3191 8.7402 47.5552 8.7402C46.7912 8.7402 46.1999 9.04032 45.7817 9.64057C45.3632 10.2226 45.1541 11.0593 45.1541 12.1507Z" fill="#505050"/>
<path d="M34.5235 5.57529C33.1228 5.57529 32.0496 6.00273 31.3036 6.85762C30.5579 7.71252 30.185 8.92208 30.185 10.4864C30.185 12.0688 30.5942 13.2875 31.4127 14.1424C32.2496 14.9973 33.3684 15.4247 34.7689 15.4247C35.5149 15.4247 36.1424 15.3247 36.6518 15.1246C37.1793 14.9245 37.6795 14.6972 38.1525 14.4425C38.4617 14.6972 38.6982 15.0064 38.862 15.3701C39.0439 15.7157 39.1348 16.125 39.1348 16.5979C39.1348 17.3437 38.7164 17.9803 37.8797 18.5078C37.061 19.0171 35.8059 19.2718 34.1141 19.2718C32.8953 19.2718 31.7493 19.099 30.6761 18.7534C29.6028 18.4077 28.6659 17.8803 27.8656 17.1709C27.0652 16.4433 26.4285 15.5339 25.9556 14.4425C25.5009 13.333 25.2734 12.0142 25.2734 10.4864C25.2734 9.0676 25.4916 7.82165 25.9282 6.74847C26.3832 5.65713 26.9924 4.73858 27.7565 3.99283C28.5387 3.24706 29.4482 2.68319 30.4851 2.30123C31.522 1.91926 32.6316 1.72827 33.8141 1.72827C35.4876 1.72827 36.7791 2.0011 37.6885 2.54678C38.6164 3.09246 39.0802 3.79274 39.0802 4.64764C39.0802 5.12055 38.962 5.52982 38.7255 5.87541C38.4891 6.221 38.2161 6.49384 37.9069 6.69391C37.434 6.38469 36.9247 6.12095 36.379 5.90269C35.8514 5.68442 35.2329 5.57529 34.5235 5.57529Z" fill="#505050"/>
</svg>
