<svg width="545" height="118" viewBox="0 0 545 118" fill="none" xmlns="http://www.w3.org/2000/svg">
<g clip-path="url(#clip0_233_264)">
<path d="M118 90.7692C118 108.923 108.923 118 90.7692 118H27.2308C9.07692 118 0 108.923 0 90.7692V27.2308C0 9.07692 9.07692 0 27.2308 0H90.7692C108.923 0 118 9.07692 118 27.2308V90.7692Z" fill="#8A38F5"/>
<path d="M45 18H35C29.4772 18 25 22.4772 25 28V90C25 95.5229 29.4772 100 35 100H45C50.5228 100 55 95.5229 55 90V28C55 22.4772 50.5228 18 45 18Z" fill="white"/>
<path d="M83 18H73C67.4772 18 63 22.4772 63 28V44C63 49.5228 67.4772 54 73 54H83C88.5228 54 93 49.5228 93 44V28C93 22.4772 88.5228 18 83 18Z" fill="white"/>
<path d="M83 64H73C67.4772 64 63 68.4772 63 74V90C63 95.5228 67.4772 100 73 100H83C88.5228 100 93 95.5228 93 90V74C93 68.4772 88.5228 64 83 64Z" fill="white"/>
</g>
<path d="M502.724 88.9719C504.462 88.9719 506.353 88.8186 508.397 88.512C510.543 88.1031 512.127 87.5921 513.149 86.9789V74.7142L502.111 75.634C499.249 75.8384 496.899 76.4517 495.059 77.4737C493.219 78.4958 492.299 80.0289 492.299 82.073C492.299 84.1171 493.066 85.8035 494.599 87.1322C496.234 88.3586 498.943 88.9719 502.724 88.9719ZM501.498 28.7215C507.017 28.7215 512.025 29.2837 516.522 30.4079C521.121 31.5322 525.005 33.2697 528.174 35.6204C531.444 37.869 533.948 40.7818 535.686 44.359C537.423 47.834 538.292 51.9734 538.292 56.777V91.1182C538.292 93.7755 537.525 95.973 535.992 97.7105C534.561 99.3458 532.824 100.777 530.78 102.003C524.136 105.989 514.785 107.982 502.724 107.982C497.307 107.982 492.402 107.471 488.007 106.449C483.714 105.427 479.984 103.894 476.815 101.85C473.749 99.8057 471.347 97.1994 469.61 94.0311C467.974 90.8627 467.157 87.1833 467.157 82.9928C467.157 75.9406 469.252 70.5237 473.442 66.7421C477.633 62.9605 484.123 60.6098 492.913 59.6899L512.996 57.5436V56.4704C512.996 53.5065 511.667 51.4112 509.01 50.1848C506.455 48.8561 502.724 48.1918 497.818 48.1918C493.935 48.1918 490.153 48.6006 486.474 49.4182C482.794 50.2359 479.473 51.2579 476.509 52.4844C475.18 51.5645 474.056 50.1848 473.136 48.3451C472.216 46.4032 471.756 44.4101 471.756 42.366C471.756 39.7087 472.369 37.6135 473.596 36.0804C474.924 34.4451 476.917 33.0653 479.575 31.941C482.539 30.8168 486.014 29.9991 490 29.4881C494.088 28.9771 497.921 28.7215 501.498 28.7215Z" fill="#EFEFEF"/>
<path d="M435.516 79.9267C435.516 82.584 436.333 84.4748 437.969 85.5991C439.706 86.7233 442.108 87.2855 445.174 87.2855C446.707 87.2855 448.291 87.1833 449.927 86.9789C451.562 86.6722 452.993 86.3145 454.219 85.9057C455.139 87.03 455.906 88.3075 456.519 89.7384C457.234 91.0671 457.592 92.7024 457.592 94.6443C457.592 98.5281 456.11 101.696 453.146 104.149C450.284 106.602 445.174 107.829 437.815 107.829C428.821 107.829 421.871 105.785 416.965 101.696C412.162 97.6083 409.76 90.9649 409.76 81.7664V16.1502C410.884 15.8436 412.468 15.537 414.512 15.2304C416.659 14.8215 418.907 14.6171 421.258 14.6171C425.755 14.6171 429.23 15.4348 431.683 17.0701C434.238 18.6032 435.516 21.9248 435.516 27.0351V36.8469H455.599C456.212 37.9712 456.774 39.402 457.285 41.1395C457.899 42.7748 458.205 44.6145 458.205 46.6587C458.205 50.2359 457.388 52.8421 455.752 54.4774C454.219 56.0105 452.124 56.777 449.467 56.777H435.516V79.9267Z" fill="#EFEFEF"/>
<path d="M367.292 58.3101C367.292 55.1418 366.372 52.8421 364.532 51.4112C362.795 49.8782 360.393 49.1116 357.327 49.1116C355.283 49.1116 353.239 49.3671 351.194 49.8782C349.253 50.3892 347.566 51.1557 346.135 52.1778V105.376C345.113 105.683 343.478 105.989 341.229 106.296C339.083 106.602 336.835 106.756 334.484 106.756C332.235 106.756 330.191 106.602 328.351 106.296C326.614 105.989 325.132 105.376 323.905 104.456C322.679 103.536 321.708 102.31 320.993 100.777C320.379 99.1414 320.073 97.0461 320.073 94.491V48.4984C320.073 45.7388 320.635 43.4903 321.759 41.7528C322.986 40.0153 324.621 38.4311 326.665 37.0002C330.14 34.5473 334.484 32.5543 339.696 31.0212C345.011 29.4881 350.888 28.7215 357.327 28.7215C368.876 28.7215 377.768 31.2767 384.003 36.387C390.237 41.3951 393.354 48.3962 393.354 57.3903V105.376C392.332 105.683 390.697 105.989 388.448 106.296C386.302 106.602 384.054 106.756 381.703 106.756C379.454 106.756 377.41 106.602 375.571 106.296C373.833 105.989 372.351 105.376 371.125 104.456C369.898 103.536 368.927 102.31 368.212 100.777C367.598 99.1414 367.292 97.0461 367.292 94.491V58.3101Z" fill="#EFEFEF"/>
<path d="M307.358 68.2752C307.358 74.612 306.387 80.2844 304.445 85.2925C302.503 90.1983 299.743 94.3377 296.166 97.7105C292.691 101.083 288.501 103.638 283.595 105.376C278.689 107.113 273.221 107.982 267.191 107.982C261.161 107.982 255.693 107.062 250.787 105.223C245.881 103.383 241.639 100.777 238.062 97.4039C234.587 93.9289 231.879 89.7384 229.937 84.8325C227.995 79.9267 227.024 74.4075 227.024 68.2752C227.024 62.2451 227.995 56.777 229.937 51.8712C231.879 46.9653 234.587 42.826 238.062 39.4532C241.639 35.9782 245.881 33.3208 250.787 31.4811C255.693 29.6414 261.161 28.7215 267.191 28.7215C273.221 28.7215 278.689 29.6925 283.595 31.6344C288.501 33.4741 292.691 36.1315 296.166 39.6065C299.743 42.9793 302.503 47.1186 304.445 52.0245C306.387 56.9304 307.358 62.3473 307.358 68.2752ZM253.7 68.2752C253.7 74.5098 254.875 79.3134 257.226 82.6862C259.679 85.9568 263.051 87.5921 267.344 87.5921C271.637 87.5921 274.907 85.9057 277.156 82.5329C279.507 79.1601 280.682 74.4075 280.682 68.2752C280.682 62.1428 279.507 57.4414 277.156 54.1708C274.805 50.798 271.483 49.1116 267.191 49.1116C262.898 49.1116 259.576 50.798 257.226 54.1708C254.875 57.4414 253.7 62.1428 253.7 68.2752Z" fill="#EFEFEF"/>
<path d="M193.972 31.3278C186.102 31.3278 180.072 33.7296 175.881 38.5333C171.691 43.337 169.596 50.1336 169.596 58.9233C169.596 67.8152 171.895 74.663 176.494 79.4667C181.196 84.2704 187.482 86.6722 195.351 86.6722C199.542 86.6722 203.068 86.1101 205.93 84.9858C208.894 83.8616 211.704 82.584 214.362 81.1531C216.099 82.584 217.428 84.3215 218.348 86.3656C219.37 88.3075 219.881 90.6072 219.881 93.2645C219.881 97.4549 217.53 101.032 212.829 103.996C208.229 106.858 201.177 108.289 191.672 108.289C184.824 108.289 178.385 107.318 172.355 105.376C166.325 103.434 161.061 100.47 156.564 96.484C152.067 92.3957 148.49 87.2855 145.833 81.1531C143.278 74.9186 142 67.5086 142 58.9233C142 50.9513 143.226 43.9502 145.679 37.92C148.235 31.7877 151.658 26.6263 155.951 22.4359C160.346 18.2454 165.456 15.077 171.282 12.9307C177.108 10.7844 183.342 9.71124 189.986 9.71124C199.389 9.71124 206.645 11.2443 211.755 14.3105C216.968 17.3767 219.574 21.3116 219.574 26.1153C219.574 28.7726 218.91 31.0723 217.581 33.0142C216.253 34.9561 214.719 36.4892 212.982 37.6134C210.325 35.8759 207.463 34.3939 204.397 33.1675C201.433 31.941 197.958 31.3278 193.972 31.3278Z" fill="#EFEFEF"/>
<defs>
<clipPath id="clip0_233_264">
<rect width="118" height="118" fill="white"/>
</clipPath>
</defs>
</svg>
