<svg width="24" height="24" viewBox="0 0 24 24" fill="none" xmlns="http://www.w3.org/2000/svg">
<path fill-rule="evenodd" clip-rule="evenodd" d="M18.6667 1.34131C19.5507 1.34131 20.3986 1.6925 21.0237 2.31762C21.6488 2.94274 22 3.79059 22 4.67464V18.008C22 18.892 21.6488 19.7399 21.0237 20.365C20.3986 20.9901 19.5507 21.3413 18.6667 21.3413H5.33333C4.44928 21.3413 3.60143 20.9901 2.97631 20.365C2.35119 19.7399 2 18.892 2 18.008V4.67464C2 3.79059 2.35119 2.94274 2.97631 2.31762C3.60143 1.6925 4.44928 1.34131 5.33333 1.34131H18.6667ZM7.55556 9.11909C7.26087 9.11909 6.97826 9.23616 6.76988 9.44453C6.56151 9.6529 6.44444 9.93552 6.44444 10.2302V15.7858C6.44444 16.0804 6.56151 16.3631 6.76988 16.5714C6.97826 16.7798 7.26087 16.8969 7.55556 16.8969C7.85024 16.8969 8.13286 16.7798 8.34123 16.5714C8.5496 16.3631 8.66667 16.0804 8.66667 15.7858V10.2302C8.66667 9.93552 8.5496 9.6529 8.34123 9.44453C8.13286 9.23616 7.85024 9.11909 7.55556 9.11909ZM10.8889 8.00798C10.5942 8.00798 10.3116 8.12504 10.1032 8.33342C9.89484 8.54179 9.77778 8.82441 9.77778 9.11909V15.7858C9.77778 16.0804 9.89484 16.3631 10.1032 16.5714C10.3116 16.7798 10.5942 16.8969 10.8889 16.8969C11.1836 16.8969 11.4662 16.7798 11.6746 16.5714C11.8829 16.3631 12 16.0804 12 15.7858V11.7191C12.3389 11.3369 12.9111 10.888 13.5478 10.6158C13.9178 10.458 14.4744 10.3935 14.8611 10.5158C14.9894 10.5483 15.1036 10.6216 15.1867 10.7246C15.2444 10.8024 15.3333 10.9758 15.3333 11.3413V15.7858C15.3333 16.0804 15.4504 16.3631 15.6588 16.5714C15.8671 16.7798 16.1498 16.8969 16.4444 16.8969C16.7391 16.8969 17.0217 16.7798 17.2301 16.5714C17.4385 16.3631 17.5556 16.0804 17.5556 15.7858V11.3413C17.5556 10.5969 17.3667 9.93465 16.9733 9.40354C16.6114 8.92193 16.1048 8.56879 15.5278 8.39576C14.5256 8.08131 13.4156 8.25576 12.6744 8.57354C12.4372 8.67559 12.2061 8.79134 11.9822 8.9202C11.9356 8.66419 11.8007 8.43265 11.6009 8.26594C11.4011 8.09923 11.1491 8.00794 10.8889 8.00798ZM7.55556 5.78576C7.26087 5.78576 6.97826 5.90282 6.76988 6.11119C6.56151 6.31957 6.44444 6.60218 6.44444 6.89687C6.44444 7.19155 6.56151 7.47417 6.76988 7.68254C6.97826 7.89092 7.26087 8.00798 7.55556 8.00798C7.85024 8.00798 8.13286 7.89092 8.34123 7.68254C8.5496 7.47417 8.66667 7.19155 8.66667 6.89687C8.66667 6.60218 8.5496 6.31957 8.34123 6.11119C8.13286 5.90282 7.85024 5.78576 7.55556 5.78576Z" fill="#874FFF"/>
</svg>
