<svg width="32" height="32" viewBox="0 0 32 32" fill="none" xmlns="http://www.w3.org/2000/svg">
<rect width="32" height="32" rx="3.55556" fill="#874FFF" fill-opacity="0.3"/>
<mask id="mask0_480_177" style="mask-type:alpha" maskUnits="userSpaceOnUse" x="7" y="7" width="18" height="18">
<rect x="7.11084" y="7.11108" width="17.7778" height="17.7778" fill="#D9D9D9"/>
</mask>
<g mask="url(#mask0_480_177)">
<path d="M13.9261 18.6666L16.0001 17.111L18.0372 18.6666L17.2594 16.1481L19.3335 14.5185H16.815L16.0001 11.9999L15.1853 14.5185H12.6668L14.7038 16.1481L13.9261 18.6666ZM16.0001 23.4073C14.2841 22.9752 12.8674 21.9907 11.7501 20.4536C10.6329 18.9166 10.0742 17.2098 10.0742 15.3333V10.8148L16.0001 8.59253L21.9261 10.8148V15.3333C21.9261 17.2098 21.3674 18.9166 20.2501 20.4536C19.1329 21.9907 17.7162 22.9752 16.0001 23.4073ZM16.0001 21.8518C17.2841 21.4444 18.3458 20.6296 19.1853 19.4073C20.0248 18.1851 20.4446 16.8271 20.4446 15.3333V11.8333L16.0001 10.1666L11.5557 11.8333V15.3333C11.5557 16.8271 11.9755 18.1851 12.815 19.4073C13.6545 20.6296 14.7162 21.4444 16.0001 21.8518Z" fill="#874FFF"/>
</g>
</svg>
