<svg width="32" height="32" viewBox="0 0 32 32" fill="none" xmlns="http://www.w3.org/2000/svg">
<rect width="32" height="32" rx="3.55556" fill="#874FFF" fill-opacity="0.3"/>
<mask id="mask0_480_170" style="mask-type:alpha" maskUnits="userSpaceOnUse" x="7" y="7" width="18" height="18">
<rect x="7.11133" y="7.11108" width="17.7778" height="17.7778" fill="#D9D9D9"/>
</mask>
<g mask="url(#mask0_480_170)">
<path d="M18.3608 17.9909C19.009 17.3427 19.333 16.5557 19.333 15.6298C19.333 14.7038 19.009 13.9168 18.3608 13.2687C17.7127 12.6205 16.9256 12.2964 15.9997 12.2964C15.0738 12.2964 14.2867 12.6205 13.6386 13.2687C12.9905 13.9168 12.6664 14.7038 12.6664 15.6298C12.6664 16.5557 12.9905 17.3427 13.6386 17.9909C14.2867 18.639 15.0738 18.9631 15.9997 18.9631C16.9256 18.9631 17.7127 18.639 18.3608 17.9909ZM14.583 17.0464C14.1942 16.6576 13.9997 16.1853 13.9997 15.6298C13.9997 15.0742 14.1942 14.602 14.583 14.2131C14.9719 13.8242 15.4442 13.6298 15.9997 13.6298C16.5553 13.6298 17.0275 13.8242 17.4164 14.2131C17.8053 14.602 17.9997 15.0742 17.9997 15.6298C17.9997 16.1853 17.8053 16.6576 17.4164 17.0464C17.0275 17.4353 16.5553 17.6298 15.9997 17.6298C15.4442 17.6298 14.9719 17.4353 14.583 17.0464ZM11.0738 19.6761C9.5923 18.6699 8.51823 17.3211 7.85156 15.6298C8.51823 13.9384 9.5923 12.5897 11.0738 11.5835C12.5553 10.5773 14.1972 10.0742 15.9997 10.0742C17.8022 10.0742 19.4442 10.5773 20.9256 11.5835C22.4071 12.5897 23.4812 13.9384 24.1479 15.6298C23.4812 17.3211 22.4071 18.6699 20.9256 19.6761C19.4442 20.6822 17.8022 21.1853 15.9997 21.1853C14.1972 21.1853 12.5553 20.6822 11.0738 19.6761ZM19.8423 18.602C21.009 17.8674 21.9009 16.8767 22.5182 15.6298C21.9009 14.3829 21.009 13.3921 19.8423 12.6576C18.6756 11.923 17.3948 11.5557 15.9997 11.5557C14.6046 11.5557 13.3238 11.923 12.1571 12.6576C10.9905 13.3921 10.0985 14.3829 9.48119 15.6298C10.0985 16.8767 10.9905 17.8674 12.1571 18.602C13.3238 19.3366 14.6046 19.7038 15.9997 19.7038C17.3948 19.7038 18.6756 19.3366 19.8423 18.602Z" fill="#874FFF"/>
</g>
</svg>
