<svg width="32" height="32" viewBox="0 0 32 32" fill="none" xmlns="http://www.w3.org/2000/svg">
<rect width="32" height="32" rx="3.55556" fill="#874FFF" fill-opacity="0.3"/>
<mask id="mask0_480_183" style="mask-type:alpha" maskUnits="userSpaceOnUse" x="7" y="7" width="18" height="18">
<rect x="7.11084" y="7.11108" width="17.7778" height="17.7778" fill="#D9D9D9"/>
</mask>
<g mask="url(#mask0_480_183)">
<path d="M10.815 21.1851V10.8147V19.2221V17.6481V21.1851ZM10.815 22.6666C10.4076 22.6666 10.0588 22.5215 9.76868 22.2314C9.47856 21.9413 9.3335 21.5925 9.3335 21.1851V10.8147C9.3335 10.4073 9.47856 10.0586 9.76868 9.76844C10.0588 9.47831 10.4076 9.33325 10.815 9.33325H21.1853C21.5928 9.33325 21.9415 9.47831 22.2316 9.76844C22.5218 10.0586 22.6668 10.4073 22.6668 10.8147V16.7407H21.1853V10.8147H10.815V21.1851H16.0002V22.6666H10.815ZM19.9631 23.4073L17.3335 20.7777L18.3891 19.7407L19.9631 21.3147L23.1113 18.1666L24.1483 19.2221L19.9631 23.4073ZM13.565 16.5277C13.707 16.3857 13.7779 16.2098 13.7779 15.9999C13.7779 15.79 13.707 15.6141 13.565 15.4721C13.423 15.3302 13.2471 15.2592 13.0372 15.2592C12.8273 15.2592 12.6514 15.3302 12.5094 15.4721C12.3674 15.6141 12.2965 15.79 12.2965 15.9999C12.2965 16.2098 12.3674 16.3857 12.5094 16.5277C12.6514 16.6697 12.8273 16.7407 13.0372 16.7407C13.2471 16.7407 13.423 16.6697 13.565 16.5277ZM13.565 13.5647C13.707 13.4228 13.7779 13.2468 13.7779 13.037C13.7779 12.8271 13.707 12.6512 13.565 12.5092C13.423 12.3672 13.2471 12.2962 13.0372 12.2962C12.8273 12.2962 12.6514 12.3672 12.5094 12.5092C12.3674 12.6512 12.2965 12.8271 12.2965 13.037C12.2965 13.2468 12.3674 13.4228 12.5094 13.5647C12.6514 13.7067 12.8273 13.7777 13.0372 13.7777C13.2471 13.7777 13.423 13.7067 13.565 13.5647ZM15.2594 16.7407H19.7039V15.2592H15.2594V16.7407ZM15.2594 13.7777H19.7039V12.2962H15.2594V13.7777Z" fill="#874FFF"/>
</g>
</svg>
